<svg width="384" height="63" viewBox="0 0 384 63" fill="none" xmlns="http://www.w3.org/2000/svg">
<path fill-rule="evenodd" clip-rule="evenodd" d="M215.473 61.6698H204.608L195.078 31.9558L189.836 61.6698H176.588L187.07 1.1941H200.033L208.325 27.0986L212.899 1.1941H226.147L215.473 61.6698ZM172.672 44.1463C171.339 52.1458 164.953 59.0033 157.424 61.6698C155.232 62.4315 153.04 62.8124 150.753 62.8124C148.465 62.8124 146.368 62.4315 144.462 61.6698C137.791 59.0033 133.884 52.1458 135.313 44.1463L139.793 18.9081C141.222 10.7176 147.798 3.67019 155.709 1.1941C157.614 0.622807 159.711 0.241943 161.808 0.241943C163.809 0.241943 165.716 0.622807 167.526 1.1941C174.484 3.67019 178.581 10.7176 177.152 18.9081L172.672 44.1463ZM159.425 13.4796C156.471 13.4796 153.516 15.9557 153.04 18.9081L148.561 44.1463C148.084 47.1936 150.085 49.5748 153.04 49.5748C156.09 49.5748 158.949 47.1936 159.52 44.1463L163.904 18.9081C164.477 15.9557 162.475 13.4796 159.425 13.4796ZM111.786 61.6698L116.265 36.2412L101.779 61.6698L101.302 62.622L101.111 61.6698L95.2024 35.3845L90.5323 61.6698H77.2853L87.7636 1.1941H101.683L107.497 26.7177L121.983 1.1941H135.707L125.033 61.6698H111.786ZM79.0023 11.0001L78.3284 13.8409L71.8706 13.8896H59.8238L57.6072 26.2166H76.3038L73.8947 39.5067H55.1981L53.6559 48.656H66.6665L72.1194 48.6818L69.9434 61.6569V61.8497H37.8508L37.9473 61.6569L47.1026 10.1334L48.5808 0.69583H80.8335L80.737 1.17692L79.0023 11.0001ZM32.0435 61.6698V61.8602H0.307129L0.402174 61.6698L9.07513 12.2415L10.7969 1.13349L24.2288 1.1941L15.937 48.7176H34.3308L32.0435 61.6698Z" fill="#325465"/>
<path fill-rule="evenodd" clip-rule="evenodd" d="M381.284 14.2418H371.658L363.176 61.6698H349.929L358.411 14.2418H350.786L353.2 1.19409H383.667L381.284 14.2418ZM324.142 61.6698L314.611 31.9558L309.369 61.6698H296.122L306.621 1.19409H319.567L327.859 27.0985L332.433 1.19409H345.681L335.007 61.6698H324.142ZM277.657 8.43384L268.261 61.6698H255.109L258.921 39.7654H247.103L243.196 61.6698H229.948L240.654 1.19409H253.87L249.39 26.5273H261.304L265.688 1.19409H273.956L277.657 8.43384ZM292.936 38.3197L288.815 61.6698H275.567L283.073 19.0283L292.936 38.3197Z" fill="#B0D34D"/>
<path fill-rule="evenodd" clip-rule="evenodd" d="M279.166 1.19409L284.312 11.8607L294.254 30.7406L299.466 1.19409H279.166Z" fill="#325465"/>
</svg>
