<svg width="24" height="24" viewBox="0 0 24 24" fill="none" xmlns="http://www.w3.org/2000/svg">
<path d="M23.7662 9.64963H22.7996V9.59984H11.9998V14.3998H18.7815C17.7921 17.1939 15.1335 19.1997 11.9998 19.1997C8.02366 19.1997 4.79992 15.9759 4.79992 11.9998C4.79992 8.02366 8.02366 4.79992 11.9998 4.79992C13.8352 4.79992 15.5049 5.49231 16.7763 6.62329L20.1705 3.22914C18.0273 1.23178 15.1605 0 11.9998 0C5.37291 0 0 5.37291 0 11.9998C0 18.6267 5.37291 23.9996 11.9998 23.9996C18.6267 23.9996 23.9996 18.6267 23.9996 11.9998C23.9996 11.1952 23.9168 10.4098 23.7662 9.64963Z" fill="#FFC107"/>
<path d="M1.38359 6.41449L5.32612 9.30584C6.3929 6.66469 8.97646 4.79992 11.9998 4.79992C13.8352 4.79992 15.5049 5.49231 16.7763 6.62329L20.1705 3.22914C18.0273 1.23178 15.1606 0 11.9998 0C7.39069 0 3.39356 2.60216 1.38359 6.41449Z" fill="#FF3D00"/>
<path d="M11.9998 23.9991C15.0993 23.9991 17.9157 22.8129 20.0451 20.8839L16.3311 17.7412C15.0859 18.6882 13.5642 19.2004 11.9998 19.1992C8.87865 19.1992 6.22849 17.209 5.23011 14.4316L1.31698 17.4466C3.30294 21.3327 7.33608 23.9991 11.9998 23.9991Z" fill="#4CAF50"/>
<path d="M23.7662 9.64941H22.7996V9.59961H11.9998V14.3995H18.7815C18.3082 15.7294 17.4557 16.8914 16.3293 17.7421L16.3311 17.7409L20.045 20.8836C19.7823 21.1224 23.9996 17.9995 23.9996 11.9996C23.9996 11.195 23.9168 10.4096 23.7662 9.64941Z" fill="#1976D2"/>
</svg>
