<svg width="390" height="64" viewBox="0 0 195 32" fill="none" xmlns="http://www.w3.org/2000/svg">
<g clip-path="url(#clip0_28_2713)">
<path fill-rule="evenodd" clip-rule="evenodd" d="M109.369 31.3243H103.854L99.0167 16.2315L96.3561 31.3243H89.632L94.9522 0.606531H101.532L105.741 13.7643L108.063 0.606531H114.787L109.369 31.3243ZM87.6444 22.4235C86.9673 26.4868 83.7261 29.9699 79.9045 31.3243C78.792 31.7113 77.6793 31.9047 76.5183 31.9047C75.3573 31.9047 74.2931 31.7113 73.3256 31.3243C69.9394 29.9699 67.9561 26.4868 68.6817 22.4235L70.9554 9.60411C71.681 5.44386 75.0187 1.86423 79.034 0.606531C80.0012 0.316349 81.0655 0.122894 82.1297 0.122894C83.1457 0.122894 84.1132 0.316349 85.0322 0.606531C88.5636 1.86423 90.6436 5.44386 89.9181 9.60411L87.6444 22.4235ZM80.9205 6.84677C79.4209 6.84677 77.9212 8.10447 77.6793 9.60411L75.4058 22.4235C75.1639 23.9714 76.1796 25.1808 77.6793 25.1808C79.2274 25.1808 80.6786 23.9714 80.9687 22.4235L83.1939 9.60411C83.4844 8.10447 82.4684 6.84677 80.9205 6.84677ZM56.7396 31.3243L59.0133 18.4082L51.6604 31.3243L51.4184 31.808L51.3217 31.3243L48.3224 17.9731L45.952 31.3243H39.2281L44.5467 0.606531H51.6119L54.5627 13.5709L61.9156 0.606531H68.8817L63.4638 31.3243H56.7396ZM40.0996 5.58738L39.7576 7.03029L36.4798 7.05502H30.3651L29.24 13.3163H38.7299L37.5072 20.0669H28.0172L27.2344 24.7142H33.8383L36.6061 24.7273L35.5016 31.3178V31.4157H19.2121L19.2611 31.3178L23.9081 5.14714L24.6584 0.35344H41.0291L40.9801 0.597803L40.0996 5.58738ZM16.2645 31.3243V31.4211H0.155884L0.204126 31.3243L4.60631 6.21792L5.48025 0.575743L12.2979 0.606531L8.08922 24.7454H17.4255L16.2645 31.3243Z" fill="white"/>
<path fill-rule="evenodd" clip-rule="evenodd" d="M193.53 7.23393H188.645L184.339 31.3244H177.615L181.921 7.23393H178.051L179.276 0.606537H194.74L193.53 7.23393ZM164.527 31.3244L159.689 16.2315L157.028 31.3244H150.304L155.633 0.606537H162.205L166.413 13.7644L168.735 0.606537H175.459L170.041 31.3244H164.527ZM140.932 4.28387L136.163 31.3244H129.487L131.422 20.1983H125.424L123.44 31.3244H116.716L122.15 0.606537H128.858L126.584 13.4742H132.632L134.857 0.606537H139.053L140.932 4.28387ZM148.687 19.464L146.595 31.3244H139.871L143.681 9.6652L148.687 19.464Z" fill="#263238"/>
<path fill-rule="evenodd" clip-rule="evenodd" d="M141.698 0.606537L144.31 6.02448L149.356 15.6143L152.002 0.606537H141.698Z" fill="white"/>
</g>
<defs>
<clipPath id="clip0_28_2713">
<rect width="194.909" height="32" fill="white"/>
</clipPath>
</defs>
</svg>
