<svg width="24" height="20" viewBox="0 0 24 20" fill="none" xmlns="http://www.w3.org/2000/svg">
<path d="M0.857143 0H23.1429C23.617 0 24 0.396094 24 0.886364V18.6136C24 19.1039 23.617 19.5 23.1429 19.5H0.857143C0.383036 19.5 0 19.1039 0 18.6136V0.886364C0 0.396094 0.383036 0 0.857143 0ZM3.02143 3.01641L11.4723 9.81648C11.6812 9.98544 11.9732 9.98544 12.1821 9.81648L20.6357 3.01641C20.6676 2.99097 20.691 2.95587 20.7026 2.91601C20.7142 2.87615 20.7134 2.83354 20.7004 2.79414C20.6874 2.75474 20.6628 2.72054 20.6301 2.69632C20.5974 2.6721 20.5581 2.65908 20.5179 2.65909H3.13929C3.09903 2.65908 3.05979 2.6721 3.02705 2.69632C2.99431 2.72054 2.96972 2.75474 2.95672 2.79414C2.94373 2.83354 2.94298 2.87615 2.95458 2.91601C2.96619 2.95587 2.98956 2.99097 3.02143 3.01641Z" fill="#C4E85F"/>
</svg>
