<svg width="17" height="24" viewBox="0 0 17 24" fill="none" xmlns="http://www.w3.org/2000/svg">
<path d="M2.83587 0.526578L4.12708 0.113773C5.3379 -0.272631 6.63151 0.352576 7.14992 1.57419L8.18193 4.00782C8.63074 5.06743 8.38113 6.31425 7.56512 7.08946L5.2911 9.24708C5.4315 10.5383 5.8659 11.8091 6.59311 13.0595C7.28368 14.2693 8.20998 15.3282 9.31714 16.1736L12.0484 15.2616C13.0828 14.9171 14.2108 15.3144 14.8444 16.2468L16.324 18.4188C17.062 19.5036 16.9288 20.9988 16.0132 21.918L15.0328 22.9032C14.056 23.8837 12.6604 24.2401 11.3704 23.8369C8.32233 22.8864 5.5227 20.0652 2.96667 15.3732C0.40704 10.6739 -0.496571 6.68505 0.257038 3.41141C0.573842 2.0338 1.55425 0.935783 2.83587 0.526578Z" fill="#C4E85F"/>
</svg>
