<svg width="24" height="17" viewBox="0 0 24 17" fill="none" xmlns="http://www.w3.org/2000/svg">
<path d="M23.499 2.58682C23.3596 2.08847 23.0938 1.63455 22.7275 1.26903C22.3612 0.90351 21.9067 0.638763 21.4081 0.500428C19.5363 2.39237e-05 12.0114 2.40447e-05 12.0114 2.40447e-05C12.0114 2.40447e-05 4.50088 -0.0119798 2.60954 0.500428C2.11169 0.639371 1.65809 0.904395 1.29261 1.26988C0.927116 1.63537 0.662092 2.08897 0.523149 2.58682C0.16769 4.50308 -0.00737956 6.44843 0.000238261 8.39736C-0.00323013 10.3369 0.171812 12.2727 0.523149 14.1801C0.662542 14.6783 0.927644 15.1322 1.29301 15.4983C1.65837 15.8645 2.11172 16.1306 2.60954 16.271C4.48137 16.7714 12.0114 16.7714 12.0114 16.7714C12.0114 16.7714 19.5175 16.7714 21.4081 16.271C21.9067 16.1312 22.361 15.8654 22.7271 15.4992C23.0933 15.133 23.3591 14.6788 23.499 14.1801C23.8433 12.2738 24.0114 10.3352 23.9994 8.39736C24.0114 6.44676 23.8471 4.50516 23.499 2.58682V2.58682ZM9.6077 11.9887V4.79025L15.8714 8.39736L9.6077 11.9887Z" fill="#F02B2B"/>
</svg>
